<?xml version="1.0" standalone="no"?>
<!DOCTYPE svg PUBLIC "-//W3C//DTD SVG 20010904//EN"
 "http://www.w3.org/TR/2001/REC-SVG-20010904/DTD/svg10.dtd">
<svg version="1.0" xmlns="http://www.w3.org/2000/svg"
 width="512.000000pt" height="512.000000pt" viewBox="0 0 512.000000 512.000000"
 preserveAspectRatio="xMidYMid meet">

<g transform="translate(0.000000,512.000000) scale(0.100000,-0.100000)"
fill="#000000" stroke="none">
<path d="M2375 4624 c-306 -42 -588 -150 -815 -311 -122 -87 -326 -291 -413
-413 -129 -182 -237 -433 -289 -670 -20 -93 -22 -133 -22 -340 0 -206 2 -248
22 -338 53 -241 159 -489 289 -672 87 -122 291 -326 413 -413 183 -129 434
-238 670 -288 143 -31 491 -34 645 -6 285 53 594 198 817 383 76 64 218 209
218 224 0 4 -33 22 -72 39 -64 29 -161 79 -381 201 -32 17 -103 64 -158 103
-55 40 -115 81 -135 92 -19 11 -48 37 -65 58 -17 20 -37 37 -45 37 -8 0 -14 5
-14 10 0 13 -48 55 -63 56 -21 1 -66 27 -62 34 3 4 -1 13 -9 19 -10 9 -15 8
-20 -4 -3 -9 -2 -13 4 -10 6 3 7 -1 4 -10 -5 -11 -10 -13 -17 -6 -11 11 -39 3
-31 -10 3 -5 11 -6 17 -2 8 5 8 2 0 -9 -7 -8 -12 -17 -10 -19 1 -3 -20 18 -46
46 -62 65 -108 130 -99 140 4 5 2 5 -4 2 -26 -15 -156 216 -139 244 4 5 18 9
33 9 37 0 139 50 187 93 85 75 135 199 135 337 0 182 -88 348 -231 436 l-60
37 28 29 27 28 -39 40 -39 40 61 0 c165 0 352 -63 448 -151 55 -51 113 -163
122 -236 6 -54 6 -54 -36 -57 -8 -1 -16 -7 -19 -15 -3 -10 0 -12 12 -8 14 5
15 3 6 -13 -5 -10 -15 -22 -20 -25 -6 -4 -8 -11 -4 -16 3 -6 -4 -13 -16 -16
-12 -3 -19 -11 -16 -19 3 -7 -7 -18 -24 -26 -16 -7 -26 -16 -23 -21 3 -5 -3
-7 -13 -5 -11 2 -21 15 -25 33 -6 28 -7 27 -8 -10 -2 -53 -51 -193 -89 -252
-17 -27 -74 -96 -126 -153 -51 -58 -92 -107 -91 -108 2 -2 19 2 38 9 60 22 98
6 176 -74 39 -39 71 -75 71 -80 0 -16 105 -107 124 -107 3 0 3 11 0 26 -5 20
6 12 52 -37 186 -196 449 -395 713 -538 l87 -47 52 85 c103 172 179 366 224
571 20 93 22 133 22 340 0 206 -2 248 -22 338 -35 158 -86 305 -157 447 -204
409 -568 724 -1005 869 -190 63 -291 79 -515 82 -110 1 -213 0 -230 -2z m-135
-209 c53 -28 69 -89 25 -97 -14 -3 -28 -1 -31 3 -3 5 -16 9 -30 9 -20 0 -24
-5 -24 -30 0 -30 -9 -36 -50 -30 -48 5 -54 87 -11 131 34 33 75 38 121 14z
m-106 -397 c-3 -4 -1 -8 5 -8 6 0 7 -7 4 -17 -5 -12 -3 -14 8 -8 12 8 12 6 0
-9 -8 -9 -17 -13 -21 -9 -11 12 -20 70 -13 77 8 8 23 -15 17 -26z m3 -95 c0
-7 -5 -13 -11 -13 -6 0 0 -7 12 -16 19 -13 21 -19 11 -30 -7 -9 -8 -14 -3 -13
5 1 93 1 196 0 l188 -1 40 -36 c22 -20 40 -42 40 -48 0 -7 -16 -27 -35 -46
l-34 -33 -45 41 c-40 37 -51 42 -94 42 -26 0 -82 -9 -123 -19 -41 -11 -85 -21
-99 -24 -14 -2 -2 -5 26 -6 28 0 70 6 94 14 30 11 40 11 36 2 -3 -6 -9 -19
-12 -28 -3 -9 -23 -24 -45 -32 -31 -12 -39 -21 -39 -40 0 -14 6 -28 13 -31 6
-3 2 -4 -11 -3 -12 1 -22 6 -22 11 2 13 -28 28 -40 21 -11 -7 -14 -125 -3
-125 4 0 17 10 29 21 21 19 24 20 38 6 14 -14 14 -22 -4 -78 -10 -35 -18 -65
-16 -66 5 -5 96 234 103 270 6 34 32 91 38 85 4 -4 -7 -39 -72 -228 -61 -175
-105 -273 -115 -258 -5 9 -8 9 -8 1 0 -6 -3 -20 -6 -30 -5 -15 -4 -16 6 -3 9
12 10 9 4 -15 -13 -50 -16 -1062 -4 -1304 6 -123 9 -225 7 -227 -1 -2 -46 64
-99 146 l-96 149 14 58 c22 90 34 304 34 589 l0 260 -29 28 -30 28 30 25 29
25 1 346 c0 191 2 343 4 337 2 -5 13 -54 26 -107 12 -54 24 -96 27 -94 6 7
-38 207 -53 243 -12 27 -21 33 -69 43 -62 13 -75 8 -120 -39 -17 -17 -35 -31
-42 -31 -6 0 -26 16 -44 36 l-32 37 43 43 43 44 159 0 c117 0 156 3 151 12
-12 19 -11 75 1 75 7 0 12 -6 12 -14z m133 -373 c0 -5 -5 -10 -11 -10 -5 0 -7
5 -4 10 3 6 8 10 11 10 2 0 4 -4 4 -10z m114 -1556 c4 -10 1 -14 -6 -12 -15 5
-23 28 -10 28 5 0 13 -7 16 -16z"/>
<path d="M2206 3365 c-9 -26 -7 -32 5 -12 6 10 9 21 6 23 -2 3 -7 -2 -11 -11z"/>
<path d="M2186 3305 c-9 -26 -7 -32 5 -12 6 10 9 21 6 23 -2 3 -7 -2 -11 -11z"/>
<path d="M2844 2461 c4 -6 2 -11 -4 -11 -6 0 -8 -4 -5 -10 3 -5 12 -10 20 -10
17 0 13 32 -5 38 -7 3 -10 0 -6 -7z"/>
<path d="M2950 2400 c0 -5 5 -10 11 -10 5 0 7 5 4 10 -3 6 -8 10 -11 10 -2 0
-4 -4 -4 -10z"/>
</g>
</svg>
